<svg id="Capa_1" enable-background="new 0 0 512 512" height="512" viewBox="0 0 512 512" width="512" xmlns="http://www.w3.org/2000/svg"><g><g><path d="m374.351 191.947c-13.941 0-25.241-11.301-25.241-25.241v-71.798c0-20.359-16.563-36.922-36.922-36.922h-112.374c-20.358 0-36.921 16.563-36.921 36.922v71.799c0 13.94-11.3 25.241-25.241 25.241-13.94 0-25.241-11.301-25.241-25.241v-71.799c0-48.195 39.209-87.403 87.403-87.403h112.373c48.195 0 87.404 39.209 87.404 87.403v71.799c.001 13.94-11.301 25.24-25.24 25.24z" fill="#365e7d"/><g fill="#2b4d66"><path d="m132.556 166.707v-71.799c0-48.195 39.209-87.403 87.403-87.403h-20.145c-48.194 0-87.403 39.209-87.403 87.403v71.799c0 13.94 11.301 25.241 25.241 25.241 3.582 0 6.986-.75 10.073-2.095-8.926-3.891-15.169-12.788-15.169-23.146z"/><path d="m369.255 166.707v-71.799c0-20.359-16.563-36.922-36.922-36.922h-20.145c20.359 0 36.922 16.563 36.922 36.922v71.799c0 13.94 11.3 25.241 25.241 25.241 3.581 0 6.986-.75 10.072-2.095-8.926-3.891-15.168-12.788-15.168-23.146z"/></g><g><path d="m108.095 105.266h58.144c9.735 0 17.626 7.892 17.626 17.626 0 9.735-7.892 17.626-17.626 17.626l-32.952 18.802-25.192-18.802c-9.735 0-17.626-7.892-17.626-17.626-.001-9.735 7.891-17.626 17.626-17.626z" fill="#f9f6f9"/><path d="m345.763 105.266h58.144c9.735 0 17.626 7.892 17.626 17.626 0 9.735-7.892 17.626-17.626 17.626l-34.653 26.188-23.491-26.188c-9.735 0-17.626-7.892-17.626-17.626 0-9.735 7.891-17.626 17.626-17.626z" fill="#f9f6f9"/><g fill="#dddaec"><path d="m380.749 140.52h-34.984c-9.733 0-17.628-7.895-17.628-17.628 0-4.866 1.979-9.279 5.169-12.469s7.592-5.159 12.459-5.159h34.984c-4.866 0-9.268 1.969-12.459 5.159-3.19 3.19-5.159 7.603-5.159 12.469 0 9.733 7.885 17.628 17.618 17.628z"/><path d="m143.08 140.52h-34.984c-9.733 0-17.628-7.895-17.628-17.628 0-4.866 1.979-9.279 5.169-12.469s7.592-5.159 12.459-5.159h34.984c-4.866 0-9.268 1.969-12.459 5.159-3.19 3.19-5.159 7.603-5.159 12.469 0 9.733 7.885 17.628 17.618 17.628z"/></g></g><path d="m471.551 288.51v154.756c0 33.823-27.412 61.234-61.234 61.234h-308.633c-33.812 0-61.234-27.411-61.234-61.234v-154.756z" fill="#f9f6f9"/><path d="m146.673 504.5h-44.989c-33.812 0-61.234-27.411-61.234-61.234v-154.756h44.989v154.756c0 33.823 27.421 61.234 61.234 61.234z" fill="#dddaec"/><path d="m471.551 288.51v30.642c-6.411 2.807-13.509 4.362-20.96 4.362h-389.181c-7.451 0-14.549-1.555-20.96-4.362v-30.642z" fill="#dddaec"/><path d="m450.592 140.519h-389.182c-28.936 0-52.393 23.457-52.393 52.393v55.381c0 28.936 23.457 52.393 52.393 52.393h389.182c28.936 0 52.393-23.457 52.393-52.393v-55.381c0-28.936-23.457-52.393-52.393-52.393z" fill="#9dc6fb"/><path d="m107.698 300.69h-46.291c-28.936 0-52.39-23.454-52.39-52.39v-55.388c0-28.936 23.454-52.39 52.39-52.39h46.291c-28.936 0-52.39 23.454-52.39 52.39v55.388c.001 28.936 23.455 52.39 52.39 52.39z" fill="#80b4fb"/><path d="m151.526 362.109h-42.857c-13.476 0-24.4-10.924-24.4-24.4v-48.9c0-13.476 10.924-24.4 24.4-24.4h42.857c13.476 0 24.4 10.924 24.4 24.4v48.9c0 13.476-10.924 24.4-24.4 24.4z" fill="#365e7d"/><path d="m125.078 362.108h-16.417c-13.468 0-24.393-10.924-24.393-24.403v-48.896c0-13.479 10.924-24.403 24.393-24.403h16.417c-13.478 0-24.403 10.924-24.403 24.403v48.896c0 13.478 10.924 24.403 24.403 24.403z" fill="#2b4d66"/><path d="m403.333 362.109h-42.857c-13.476 0-24.4-10.924-24.4-24.4v-48.9c0-13.476 10.924-24.4 24.4-24.4h42.857c13.476 0 24.4 10.924 24.4 24.4v48.9c.001 13.476-10.924 24.4-24.4 24.4z" fill="#365e7d"/><path d="m376.885 362.108h-16.417c-13.468 0-24.393-10.924-24.393-24.403v-48.896c0-13.479 10.924-24.403 24.393-24.403h16.417c-13.478 0-24.403 10.924-24.403 24.403v48.896c0 13.478 10.924 24.403 24.403 24.403z" fill="#2b4d66"/><path d="m361.316 323.091v-19.666c0-7.609 6.168-13.777 13.777-13.777h13.623c7.609 0 13.777 6.168 13.777 13.777v19.666c0 7.609-6.168 13.777-13.777 13.777h-13.623c-7.608.001-13.777-6.168-13.777-13.777z" fill="#9dc6fb"/><path d="m109.509 323.091v-19.666c0-7.609 6.168-13.777 13.777-13.777h13.623c7.609 0 13.777 6.168 13.777 13.777v19.666c0 7.609-6.168 13.777-13.777 13.777h-13.623c-7.609.001-13.777-6.168-13.777-13.777z" fill="#9dc6fb"/><path d="m137.91 336.834c-.333.03-.666.04-1.01.04h-13.62c-7.603 0-13.771-6.169-13.771-13.781v-19.668c0-7.602 6.169-13.771 13.771-13.771h13.62c.343 0 .676.01 1.01.04-7.148.505-12.782 6.462-12.782 13.731v19.668c0 7.28 5.633 13.237 12.782 13.741z" fill="#80b4fb"/><path d="m389.717 336.834c-.333.03-.666.04-1.01.04h-13.62c-7.603 0-13.771-6.169-13.771-13.781v-19.668c0-7.602 6.169-13.771 13.771-13.771h13.62c.343 0 .676.01 1.01.04-7.148.505-12.782 6.462-12.782 13.731v19.668c0 7.28 5.634 13.237 12.782 13.741z" fill="#80b4fb"/><path d="m256 411.556h33.521c6.964-16.14 23.014-27.447 41.716-27.447s34.761 11.297 41.716 27.447h-41.215v35.942h41.215c-6.954 16.15-23.014 27.447-41.716 27.447s-34.751-11.307-41.716-27.447h-33.521-33.52c-6.964 16.14-23.014 27.447-41.716 27.447s-34.761-11.297-41.716-27.447h41.215v-35.942h-41.215c6.954-16.15 23.014-27.447 41.716-27.447s34.751 11.307 41.716 27.447z" fill="#9dc6fb"/></g><g><path d="m450.591 133.019h-23.695c1.371-3.1 2.139-6.524 2.139-10.126 0-12.776-9.587-23.347-21.943-24.918v-3.075c0-22.391-7.979-44.142-22.467-61.247-2.677-3.161-7.409-3.554-10.57-.876-3.16 2.677-3.553 7.41-.875 10.57 12.195 14.399 18.912 32.708 18.912 51.553v2.866h-35.478v-2.862c0-24.495-19.928-44.422-44.422-44.422h-112.382c-24.489 0-44.412 19.928-44.412 44.422v2.862h-35.477v-2.866c0-44.057 35.838-79.9 79.89-79.9h112.381c14.135 0 28.037 3.76 40.203 10.875 3.575 2.09 8.169.887 10.261-2.689 2.091-3.576.887-8.169-2.688-10.26-14.463-8.456-30.984-12.926-47.777-12.926h-112.38c-52.322 0-94.89 42.572-94.89 94.9v3.073c-12.361 1.566-21.953 12.14-21.953 24.919 0 3.602.768 7.026 2.139 10.126h-23.698c-33.023 0-59.89 26.866-59.89 59.89v55.388c0 22.136 12.189 42.309 31.432 52.702v142.272c0 31.616 21.397 59.035 52.034 66.677.609.152 1.22.225 1.821.225 3.361 0 6.421-2.277 7.271-5.687 1.002-4.019-1.443-8.09-5.462-9.092-23.943-5.973-40.665-27.406-40.665-52.123v-136.616c4.38 1.007 8.875 1.532 13.458 1.532h15.359v29.523c0 17.59 14.311 31.9 31.9 31.9h42.856c17.59 0 31.9-14.311 31.9-31.9v-29.523h145.15v29.523c0 17.59 14.311 31.9 31.9 31.9h42.856c17.59 0 31.9-14.311 31.9-31.9v-29.523h15.357c4.584 0 9.08-.526 13.46-1.533v136.617c0 29.627-24.103 53.73-53.729 53.73h-293.636c-4.143 0-7.5 3.358-7.5 7.5s3.357 7.5 7.5 7.5h293.641c37.897 0 68.729-30.832 68.729-68.73v-142.273c19.243-10.395 31.43-30.566 31.43-52.7v-55.388c-.001-33.024-26.867-59.89-59.89-59.89zm-36.557-10.127c0 5.584-4.543 10.126-10.127 10.126h-58.144c-5.584 0-10.127-4.542-10.127-10.126s4.543-10.126 10.127-10.126h58.144c5.584 0 10.127 4.542 10.127 10.126zm-214.224-57.411h112.382c16.224 0 29.422 13.199 29.422 29.422v3.211c-11.886 1.985-20.977 12.337-20.977 24.778 0 3.602.768 7.026 2.139 10.126h-133.549c1.371-3.1 2.139-6.524 2.139-10.126 0-12.438-9.086-22.788-20.968-24.776v-3.212c-.001-16.224 13.194-29.423 29.412-29.423zm-101.842 57.411c0-5.584 4.543-10.126 10.127-10.126h58.144c5.584 0 10.127 4.542 10.127 10.126s-4.543 10.126-10.127 10.126h-58.144c-5.584.001-10.127-4.542-10.127-10.126zm70.458 214.817c0 9.319-7.581 16.9-16.9 16.9h-42.856c-9.319 0-16.9-7.582-16.9-16.9v-48.9c0-9.319 7.581-16.9 16.9-16.9h42.856c9.319 0 16.9 7.582 16.9 16.9zm251.807 0c0 9.319-7.581 16.9-16.9 16.9h-42.856c-9.319 0-16.9-7.582-16.9-16.9v-48.9c0-9.319 7.581-16.9 16.9-16.9h42.856c9.319 0 16.9 7.582 16.9 16.9zm75.247-89.413c0 17.852-10.572 34.006-26.938 41.158-5.656 2.477-11.696 3.732-17.952 3.732h-15.357v-4.377c0-17.59-14.311-31.9-31.9-31.9h-42.856c-17.59 0-31.9 14.311-31.9 31.9v4.377h-145.15v-4.377c0-17.59-14.311-31.9-31.9-31.9h-42.856c-17.59 0-31.9 14.311-31.9 31.9v4.377h-15.362c-6.256 0-12.296-1.255-17.957-3.734-16.36-7.15-26.933-23.305-26.933-41.156v-55.388c0-24.752 20.138-44.89 44.89-44.89h389.182c24.752 0 44.89 20.137 44.89 44.89v55.388z"/><path d="m388.716 282.148h-13.622c-11.732 0-21.277 9.545-21.277 21.277v19.666c0 11.732 9.545 21.277 21.277 21.277h13.622c11.732 0 21.277-9.545 21.277-21.277v-19.666c0-11.732-9.545-21.277-21.277-21.277zm6.277 40.943c0 3.461-2.816 6.277-6.277 6.277h-13.622c-3.461 0-6.277-2.816-6.277-6.277v-19.666c0-3.461 2.816-6.277 6.277-6.277h13.622c3.461 0 6.277 2.816 6.277 6.277z"/><path d="m136.908 282.148h-13.622c-11.732 0-21.277 9.545-21.277 21.277v19.666c0 11.732 9.545 21.277 21.277 21.277h13.622c11.732 0 21.277-9.545 21.277-21.277v-19.666c.001-11.732-9.544-21.277-21.277-21.277zm6.278 40.943c0 3.461-2.816 6.277-6.277 6.277h-13.622c-3.461 0-6.277-2.816-6.277-6.277v-19.666c0-3.461 2.816-6.277 6.277-6.277h13.622c3.461 0 6.277 2.816 6.277 6.277z"/><path d="m139.049 439.998c-2.523 0-4.878 1.269-6.265 3.376-1.388 2.108-1.622 4.772-.624 7.09 8.365 19.427 27.444 31.98 48.604 31.98 19.451 0 37.153-10.622 46.388-27.447h57.696c9.234 16.825 26.937 27.447 46.388 27.447 21.16 0 40.239-12.553 48.604-31.98.998-2.318.764-4.982-.624-7.09-1.387-2.107-3.741-3.376-6.265-3.376h-33.715v-20.942h33.715c2.523 0 4.878-1.269 6.265-3.376 1.388-2.108 1.622-4.772.624-7.09-8.365-19.427-27.444-31.98-48.604-31.98-19.451 0-37.153 10.622-46.388 27.447h-57.696c-9.234-16.825-26.937-27.447-46.388-27.447-21.16 0-40.239 12.553-48.604 31.98-.998 2.318-.764 4.982.624 7.09 1.387 2.107 3.741 3.376 6.265 3.376h33.715v20.942zm41.215-35.942h-27.603c7.062-7.792 17.196-12.447 28.104-12.447 15.15 0 28.821 8.996 34.828 22.918 1.187 2.749 3.894 4.529 6.887 4.529h67.042c2.993 0 5.7-1.78 6.887-4.529 6.007-13.922 19.678-22.918 34.828-22.918 10.907 0 21.042 4.654 28.104 12.447h-27.603c-4.143 0-7.5 3.358-7.5 7.5v35.942c0 4.142 3.357 7.5 7.5 7.5h27.603c-7.062 7.792-17.196 12.447-28.104 12.447-15.15 0-28.821-8.996-34.828-22.918-1.187-2.749-3.894-4.529-6.887-4.529h-67.042c-2.993 0-5.7 1.78-6.887 4.529-6.007 13.922-19.678 22.918-34.828 22.918-10.907 0-21.042-4.654-28.104-12.447h27.603c4.143 0 7.5-3.358 7.5-7.5v-35.942c0-4.142-3.358-7.5-7.5-7.5z"/></g></g></svg>